<?xml version="1.0" encoding="UTF-8" standalone="no"?>
<svg width="52px" height="52px" viewBox="0 0 52 52" version="1.1" xmlns="http://www.w3.org/2000/svg" xmlns:xlink="http://www.w3.org/1999/xlink" xmlns:sketch="http://www.bohemiancoding.com/sketch/ns">
    <!-- Generator: Sketch 3.2.2 (9983) - http://www.bohemiancoding.com/sketch -->
    <title>circle_info_hover</title>
    <desc>Created with Sketch.</desc>
    <defs></defs>
    <g id="Page-1" stroke="none" stroke-width="1" fill="none" fill-rule="evenodd" sketch:type="MSPage">
        <g id="Info-+-Rectangle-5" sketch:type="MSLayerGroup" transform="translate(0.000000, 3.000000)" stroke="#F8B11C">
            <ellipse id="Info" sketch:type="MSShapeGroup" cx="23.7363281" cy="23.7363281" rx="23.1852227" ry="23.1852227"></ellipse>
            <path d="M24.5,19 L29,19 L29,34 L29,34 L33,34 L33,41 L16,41 L16,34 L20,34 L20,26 L16,26 L16,19 L24.5,19 Z M24.5,17 C28.0898509,17 31,14.0898509 31,10.5 C31,6.91014913 28.0898509,4 24.5,4 C20.9101491,4 18,6.91014913 18,10.5 C18,14.0898509 20.9101491,17 24.5,17 Z" id="Rectangle-5" sketch:type="MSShapeGroup"></path>
        </g>
    </g>
</svg>