<?xml version="1.0" standalone="no"?>
<!DOCTYPE svg PUBLIC "-//W3C//DTD SVG 1.1//EN" "http://www.w3.org/Graphics/SVG/1.1/DTD/svg11.dtd">
<svg width="200px" height="200px" version="1.1" xmlns="http://www.w3.org/2000/svg" xmlns:xlink="http://www.w3.org/1999/xlink" xml:space="preserve" style="fill-rule:evenodd;clip-rule:evenodd;stroke-linejoin:round;stroke-miterlimit:1.41421;">
    <g>
        <g id="Layer1">
            <g>
                <path d="M154.753,181.484C168.672,179.381 172.446,160.549 173.242,149.182C173.762,141.751 174.264,134.296 174.071,126.849C173.876,119.344 173.135,111.847 172.077,104.414C170.623,94.1904 168.814,84.0062 166.541,73.9327C163.881,62.1374 160.633,50.4776 157.288,38.8577C157.202,38.5601 145.424,2.36538 144.141,2.64229C113.107,9.3446 56.9708,41.0297 56.9708,41.0297C56.9708,41.0297 60.4779,51.7486 62.0254,57.1698C63.5567,62.5345 65.0407,67.9203 66.2042,73.3766C68.406,83.7018 70.521,94.0559 72.1166,104.492C73.4793,113.405 74.431,122.385 75.0722,131.379C75.5384,137.917 75.7247,144.492 75.4353,151.041C75.1482,157.539 74.254,164.001 73.3461,170.442C71.9574,180.293 67.5175,196.464 55.2657,197.444L154.753,181.484Z" style="fill:rgb(152,113,113);"/>
            </g>
            <g>
                <path d="M67.5811,49.7689C67.4819,49.7633 67.3822,49.7625 67.2833,49.7522C66.8874,49.711 66.5002,49.5937 66.148,49.4084C65.8839,49.2694 65.6399,49.0926 65.4257,48.8848C65.2114,48.677 65.0272,48.4387 64.8802,48.179C64.7331,47.9193 64.6235,47.6386 64.5556,47.348C64.465,46.9604 64.4492,46.5562 64.5092,46.1627C64.5691,45.7691 64.7047,45.388 64.9066,45.0449C65.1085,44.7019 65.376,44.3984 65.691,44.155C65.9012,43.9925 65.9646,43.9675 66.1949,43.8371C66.6004,43.6324 67.006,43.428 67.4118,43.2241C68.6658,42.5967 69.9221,41.9739 71.1817,41.3578C74.4966,39.7365 77.8303,38.1536 81.1758,36.5966C84.6448,34.9822 88.127,33.3959 91.6186,31.831C96.2121,29.7723 100.822,27.7505 105.445,25.7594C109.672,23.9392 113.909,22.1445 118.158,20.3774C120.703,19.3189 123.252,18.2701 125.807,17.2349C127.739,16.4518 129.674,15.676 131.615,14.9141C133.119,14.3236 134.626,13.7387 136.142,13.1808C136.582,13.0188 137.024,12.8591 137.467,12.7063C137.587,12.6649 137.707,12.6243 137.828,12.5842C137.98,12.5338 138.109,12.4905 138.27,12.4541C138.367,12.4323 138.465,12.415 138.564,12.4025C138.86,12.3649 139.161,12.3698 139.456,12.4171C139.849,12.4802 140.229,12.6188 140.571,12.8234C140.912,13.0281 141.213,13.298 141.454,13.6149C141.635,13.8525 141.781,14.1158 141.888,14.3947C141.994,14.6735 142.06,14.9674 142.084,15.2649C142.115,15.6617 142.07,16.0638 141.951,16.4438C141.833,16.8239 141.642,17.1804 141.391,17.4892C141.14,17.798 140.829,18.0579 140.482,18.2512C140.395,18.2995 140.305,18.3437 140.214,18.3835C140.044,18.4578 139.957,18.4822 139.801,18.5341C139.68,18.574 139.631,18.5912 139.508,18.6331C139.327,18.6961 139.146,18.76 138.965,18.8244C138.094,19.1379 137.228,19.464 136.363,19.7949C135.543,20.1091 134.724,20.4277 133.906,20.7488C131.65,21.6345 129.402,22.5387 127.157,23.4521C121.388,25.7993 115.643,28.2077 109.918,30.6602C102.786,33.7156 95.6834,36.8411 88.6255,40.0648C83.067,42.6036 77.5345,45.2016 72.0577,47.9127C71.043,48.415 70.0308,48.9223 69.0202,49.4326L68.7478,49.5542C68.6536,49.5859 68.5608,49.6222 68.4651,49.6494C68.2097,49.7221 68.1415,49.7217 67.8791,49.7572C67.7798,49.7611 67.6805,49.765 67.5811,49.7689Z" style="fill:rgb(174,173,185);fill-rule:nonzero;"/>
                <path d="M71.2376,59.8678C70.9733,59.853 70.9053,59.8586 70.6449,59.8062C70.2547,59.7275 69.8804,59.574 69.5474,59.356C69.2977,59.1925 69.0717,58.9933 68.8782,58.7661C68.6201,58.4631 68.4207,58.111 68.2937,57.7338C68.1667,57.3565 68.1125,56.9556 68.1348,56.5582C68.1516,56.2602 68.2111,55.9649 68.3111,55.6837C68.411,55.4025 68.5514,55.1359 68.7265,54.8943C68.9601,54.572 69.2553,54.2953 69.592,54.0829C69.676,54.0299 69.765,53.985 69.8515,53.936C70.2569,53.7313 70.6625,53.527 71.0683,53.323C72.3223,52.6956 73.5786,52.0728 74.8382,51.4567C78.1531,49.8354 81.4868,48.2525 84.8324,46.6956C88.3014,45.0811 91.7835,43.4948 95.2751,41.93C99.6454,39.9713 104.031,38.0462 108.428,36.1489C112.878,34.229 117.34,32.3374 121.814,30.4764C124.359,29.4178 126.909,28.3691 129.463,27.3338C131.396,26.5507 133.331,25.775 135.272,25.013C136.776,24.4226 138.282,23.8376 139.798,23.2798C140.239,23.1178 140.68,22.9581 141.124,22.8053C141.243,22.7641 141.364,22.723 141.484,22.6831C141.636,22.6328 141.766,22.5894 141.927,22.553C142.024,22.5312 142.122,22.5139 142.221,22.5014C142.517,22.4638 142.818,22.4687 143.113,22.5161C143.407,22.5634 143.695,22.653 143.964,22.7814C144.324,22.9527 144.649,23.1928 144.919,23.4854C145.189,23.7779 145.402,24.1218 145.544,24.4937C145.65,24.7726 145.717,25.0665 145.74,25.364C145.771,25.7608 145.726,26.1629 145.608,26.5429C145.49,26.9229 145.298,27.2794 145.047,27.5882C144.796,27.897 144.486,28.1569 144.138,28.3502C144.051,28.3985 143.962,28.4427 143.871,28.4825C143.701,28.5568 143.614,28.5811 143.457,28.633C143.337,28.6729 143.287,28.6903 143.165,28.732C142.983,28.795 142.802,28.8589 142.621,28.9234C141.75,29.2368 140.884,29.563 140.02,29.8939C139.199,30.208 138.38,30.5266 137.563,30.8477C135.307,31.7334 133.058,32.6376 130.813,33.551C125.044,35.8982 119.3,38.3067 113.575,40.7592C106.442,43.8144 99.3398,46.9401 92.282,50.1637C86.7235,52.7026 81.191,55.3006 75.7142,58.0116C74.6995,58.5139 73.6873,59.0213 72.6766,59.5315L72.4043,59.6532C72.1534,59.7376 72.0924,59.7681 71.8312,59.8162C71.7334,59.8342 71.6341,59.8428 71.5356,59.8561C71.4363,59.86 71.3369,59.8639 71.2376,59.8678Z" style="fill:rgb(174,173,185);fill-rule:nonzero;"/>
                <path d="M73.8495,70.4891C73.7502,70.4835 73.6506,70.4827 73.5517,70.4724C73.1558,70.4312 72.7686,70.314 72.4163,70.1286C72.1522,69.9897 71.9083,69.8128 71.694,69.6051C71.4798,69.3973 71.2956,69.159 71.1485,68.8992C70.9524,68.5529 70.8233,68.1694 70.77,67.775C70.7166,67.3805 70.7393,66.9766 70.8364,66.5906C70.9092,66.3011 71.0235,66.0224 71.1749,65.7652C71.3768,65.4222 71.6443,65.1187 71.9593,64.8752C72.1694,64.7128 72.2329,64.6878 72.4632,64.5573C72.8686,64.3526 73.2743,64.1483 73.6801,63.9443C74.9341,63.3169 76.1904,62.6941 77.45,62.078C80.7649,60.4567 84.0986,58.8739 87.4441,57.3169C90.9132,55.7024 94.3953,54.1161 97.887,52.5513C102.48,50.4925 107.091,48.4708 111.714,46.4796C115.94,44.6595 120.177,42.8648 124.426,41.0977C126.971,40.0391 129.52,38.9904 132.075,37.9551C134.136,37.1201 136.2,36.2932 138.27,35.4828C139.646,34.9443 141.024,34.4112 142.41,33.9011C142.85,33.7391 143.292,33.5794 143.735,33.4266C143.854,33.3857 143.977,33.344 144.096,33.3044C144.248,33.254 144.378,33.2106 144.539,33.1743C144.636,33.1524 144.734,33.1352 144.833,33.1227C145.228,33.0725 145.631,33.0985 146.017,33.1987C146.305,33.2738 146.583,33.3904 146.839,33.5438C147.181,33.7485 147.482,34.0185 147.723,34.3354C147.964,34.6523 148.143,35.0149 148.249,35.3986C148.328,35.6863 148.366,35.9852 148.361,36.2836C148.356,36.582 148.309,36.8794 148.22,37.1644C148.101,37.5444 147.91,37.9009 147.659,38.2097C147.408,38.5184 147.098,38.7783 146.75,38.9716C146.663,39.0199 146.573,39.0641 146.482,39.1039C146.312,39.1782 146.225,39.2024 146.069,39.2543C145.95,39.2939 145.898,39.3119 145.777,39.3533C145.595,39.4163 145.414,39.4802 145.233,39.5447C144.362,39.8581 143.496,40.1842 142.632,40.5151C141.811,40.8293 140.992,41.1479 140.174,41.469C137.918,42.3547 135.67,43.259 133.425,44.1723C127.656,46.5195 121.912,48.928 116.187,51.3805C109.054,54.4358 101.952,57.5612 94.8938,60.785C88.3055,63.7944 81.7545,66.8879 75.2885,70.1528L75.0162,70.2744C74.7653,70.3589 74.7043,70.3894 74.4431,70.4375C74.3453,70.4555 74.246,70.4641 74.1475,70.4774C74.0482,70.4813 73.9488,70.4852 73.8495,70.4891Z" style="fill:rgb(174,173,185);fill-rule:nonzero;"/>
                <path d="M80.9713,96.9546C80.7072,96.9358 80.6392,96.9405 80.3796,96.8842C79.893,96.7786 79.4341,96.556 79.05,96.2392C78.7429,95.986 78.4851,95.6741 78.2941,95.3249C78.1032,94.9756 77.9797,94.5904 77.9323,94.1951C77.8967,93.8988 77.9036,93.5977 77.953,93.3033C78.0023,93.009 78.0938,92.722 78.2241,92.4534C78.3543,92.1849 78.5231,91.9353 78.7237,91.7144C78.9913,91.4197 79.315,91.177 79.6729,91.0029C79.7623,90.9594 79.8557,90.9245 79.947,90.8853C80.6889,90.6082 81.4303,90.3301 82.1715,90.0511C88.2482,87.7591 94.3006,85.4032 100.338,83.011C106.755,80.4689 113.154,77.8858 119.542,75.2716C125.555,72.8102 131.558,70.3212 137.546,67.7991C142.94,65.5274 148.324,63.2311 153.681,60.874L153.959,60.767C154.055,60.7403 154.15,60.7091 154.247,60.687C154.635,60.5985 155.039,60.5849 155.432,60.647C155.825,60.7091 156.206,60.8468 156.548,61.0506C156.804,61.2034 157.038,61.3929 157.241,61.6117C157.444,61.8305 157.615,62.0784 157.749,62.3455C157.926,62.7018 158.035,63.0915 158.067,63.4883C158.107,63.9845 158.028,64.4884 157.836,64.948C157.606,65.5 157.217,65.9807 156.725,66.3208C156.507,66.4719 156.442,66.4935 156.205,66.6115C155.68,66.8426 155.155,67.0732 154.629,67.3035C149.013,69.757 143.372,72.1546 137.72,74.5256C131.616,77.0862 125.498,79.6144 119.368,82.1135C113.383,84.554 107.386,86.9667 101.374,89.3424C95.1672,91.7953 88.9446,94.2091 82.6947,96.5503L82.141,96.7571C82.0463,96.7875 81.953,96.8223 81.857,96.8481C81.6004,96.917 81.5323,96.9157 81.2694,96.9473C81.1701,96.9497 81.0707,96.9521 80.9713,96.9546Z" style="fill:rgb(174,173,185);fill-rule:nonzero;"/>
                <path d="M82.7125,106.531C82.6134,106.524 82.5137,106.522 82.415,106.51C82.0198,106.463 81.6343,106.34 81.2849,106.15C81.0228,106.007 80.7815,105.826 80.5704,105.615C80.3592,105.404 80.1785,105.163 80.0353,104.902C79.8444,104.552 79.721,104.167 79.6735,103.772C79.626,103.377 79.6546,102.973 79.7574,102.588C79.8344,102.3 79.9529,102.023 80.108,101.768C80.3669,101.343 80.7274,100.982 81.1524,100.723C81.3791,100.584 81.4449,100.566 81.6882,100.462C82.43,100.185 83.1715,99.9067 83.9127,99.6277C89.9894,97.3358 96.0418,94.9798 102.08,92.5876C108.496,90.0455 114.896,87.4624 121.283,84.8481C127.296,82.3867 133.299,79.8978 139.287,77.3757C144.681,75.104 150.065,72.8077 155.422,70.4506L155.7,70.3436C155.796,70.3169 155.891,70.2857 155.988,70.2636C156.376,70.1751 156.78,70.1615 157.173,70.2236C157.468,70.2702 157.756,70.359 158.026,70.4868C158.295,70.6145 158.547,70.7809 158.769,70.9794C159.141,71.3107 159.431,71.7303 159.61,72.195C159.753,72.5666 159.824,72.9649 159.818,73.3629C159.813,73.7609 159.731,74.157 159.577,74.5245C159.347,75.0766 158.959,75.5573 158.467,75.8974C158.248,76.0484 158.183,76.0701 157.947,76.1881C157.421,76.4191 156.896,76.6498 156.371,76.8801C150.754,79.3336 145.113,81.7312 139.461,84.1022C133.357,86.6628 127.239,89.191 121.109,91.6901C115.124,94.1305 109.127,96.5433 103.115,98.919C96.9083,101.372 90.6859,103.786 84.4358,106.127L83.8823,106.334C83.7876,106.364 83.6943,106.399 83.5982,106.425C83.3417,106.494 83.2735,106.492 83.0107,106.524C82.9113,106.526 82.8119,106.529 82.7125,106.531Z" style="fill:rgb(174,173,185);fill-rule:nonzero;"/>
                <path d="M84.4537,116.108C84.3545,116.101 84.2549,116.098 84.1561,116.087C83.7609,116.04 83.3754,115.917 83.026,115.726C82.764,115.583 82.5227,115.403 82.3115,115.192C82.1004,114.981 81.9197,114.74 81.7765,114.478C81.5855,114.129 81.4621,113.744 81.4146,113.348C81.3671,112.953 81.3958,112.55 81.4986,112.165C81.5756,111.877 81.6941,111.6 81.8493,111.345C82.1081,110.919 82.4686,110.559 82.8936,110.299C83.1203,110.161 83.1861,110.143 83.4294,110.038C84.1712,109.761 84.9127,109.483 85.6539,109.204C91.7306,106.912 97.783,104.556 103.821,102.164C110.237,99.622 116.637,97.039 123.024,94.4247C129.038,91.9633 135.04,89.4744 141.029,86.9523C146.422,84.6806 151.806,82.3844 157.163,80.0272L157.442,79.9202C157.697,79.8491 157.759,79.8219 158.023,79.7878C158.616,79.7109 159.226,79.8074 159.767,80.0633C160.217,80.2764 160.613,80.5973 160.916,80.9929C161.157,81.3092 161.338,81.6713 161.445,82.0547C161.525,82.3422 161.563,82.641 161.559,82.9394C161.555,83.2378 161.508,83.5354 161.42,83.8206C161.303,84.2009 161.112,84.5579 160.862,84.8673C160.612,85.1768 160.302,85.4374 159.955,85.6317C159.868,85.6802 159.777,85.7203 159.688,85.7646C159.163,85.9957 158.637,86.2264 158.112,86.4567C152.495,88.9102 146.854,91.3078 141.202,93.6788C135.098,96.2394 128.98,98.7676 122.851,101.267C116.865,103.707 110.868,106.12 104.856,108.496C98.6495,110.948 92.4271,113.362 86.177,115.703L85.6234,115.91C85.3713,115.991 85.3099,116.021 85.048,116.065C84.9499,116.081 84.8505,116.089 84.7518,116.1C84.6524,116.103 84.553,116.105 84.4537,116.108Z" style="fill:rgb(174,173,185);fill-rule:nonzero;"/>
                <path d="M86.6352,126.382C86.4366,126.376 86.3862,126.38 86.1889,126.352C85.8193,126.302 85.4594,126.184 85.1308,126.007C84.471,125.652 83.9523,125.061 83.6861,124.361C83.5801,124.082 83.5142,123.788 83.4911,123.49C83.468,123.193 83.4876,122.892 83.5493,122.6C83.6263,122.235 83.769,121.884 83.9688,121.569C84.2488,121.128 84.6395,120.759 85.0968,120.506C85.271,120.41 85.3194,120.395 85.5025,120.318C85.9148,120.161 86.3271,120.004 86.7392,119.847C90.5924,118.369 94.4286,116.847 98.2544,115.3C101.349,114.048 104.436,112.78 107.519,111.499C110.864,110.108 114.203,108.701 117.535,107.276C120.389,106.055 123.237,104.821 126.073,103.558L126.502,103.367C126.686,103.292 126.73,103.268 126.922,103.214C127.281,103.111 127.657,103.074 128.029,103.104C128.55,103.145 129.059,103.319 129.496,103.605C129.871,103.85 130.192,104.176 130.431,104.555C130.59,104.807 130.713,105.082 130.795,105.369C130.876,105.656 130.917,105.955 130.914,106.253C130.911,106.626 130.841,106.998 130.708,107.347C130.494,107.906 130.12,108.398 129.638,108.752C129.518,108.841 129.392,108.92 129.26,108.991C129.194,109.026 129.126,109.056 129.059,109.089C128.612,109.289 128.165,109.488 127.717,109.687C123.425,111.585 119.11,113.431 114.785,115.253C109.835,117.338 104.871,119.39 99.8897,121.4C97.1249,122.515 94.3548,123.618 91.5763,124.699C90.7116,125.035 89.8461,125.369 88.9796,125.701C88.7695,125.781 88.5593,125.862 88.3491,125.942C88.1425,126.02 87.9365,126.101 87.7292,126.177C87.5799,126.232 87.4564,126.271 87.3009,126.306C87.1067,126.349 87.0561,126.35 86.8587,126.372C86.7842,126.375 86.7097,126.378 86.6352,126.382Z" style="fill:rgb(174,173,185);fill-rule:nonzero;"/>
                <path d="M81.1326,182.876C81.0301,182.874 80.9274,182.877 80.8251,182.87C80.4156,182.841 80.0127,182.731 79.6453,182.548C79.3699,182.411 79.1151,182.232 78.8914,182.021C78.5182,181.668 78.2346,181.224 78.0718,180.737C77.9415,180.348 77.8889,179.934 77.9175,179.524C77.939,179.217 78.006,178.914 78.1157,178.626C78.2254,178.339 78.3776,178.067 78.566,177.824C78.9438,177.336 79.4648,176.967 80.0498,176.771C80.3096,176.684 80.38,176.682 80.6488,176.634C81.086,176.578 81.5231,176.522 81.9601,176.465C85.7398,175.963 89.5088,175.384 93.2698,174.759C97.1117,174.12 100.945,173.433 104.773,172.713C108.967,171.925 113.154,171.098 117.335,170.241C121.646,169.358 125.95,168.443 130.249,167.501C133.494,166.79 136.735,166.063 139.973,165.319C142.958,164.634 145.939,163.934 148.915,163.215C151.202,162.663 153.486,162.101 155.764,161.514C156.628,161.291 157.491,161.065 158.352,160.83C159.012,160.65 159.672,160.468 160.324,160.26L160.622,160.181C160.891,160.137 160.958,160.116 161.232,160.112C161.953,160.102 162.667,160.346 163.23,160.796C163.551,161.052 163.821,161.371 164.019,161.73C164.218,162.09 164.344,162.488 164.39,162.896C164.425,163.201 164.414,163.512 164.358,163.815C164.302,164.117 164.201,164.411 164.06,164.685C163.919,164.958 163.737,165.211 163.522,165.431C163.236,165.725 162.892,165.962 162.515,166.125C162.36,166.191 162.225,166.233 162.07,166.282C161.877,166.343 161.683,166.401 161.49,166.458C160.899,166.632 160.305,166.796 159.71,166.957C158.09,167.395 156.463,167.809 154.834,168.217C152.422,168.82 150.005,169.405 147.586,169.979C144.852,170.628 142.115,171.263 139.375,171.886C134.274,173.046 129.165,174.167 124.046,175.248C118.809,176.353 113.562,177.417 108.304,178.424C103.896,179.267 99.4808,180.072 95.055,180.816C90.7499,181.539 86.4348,182.205 82.1057,182.767L81.7706,182.81L81.4393,182.852C81.3371,182.86 81.2349,182.868 81.1326,182.876Z" style="fill:rgb(174,173,185);fill-rule:nonzero;"/>
                <path d="M83.387,172.081C83.2812,172.078 83.1751,172.081 83.0696,172.073C82.647,172.041 82.2321,171.922 81.8565,171.726C81.5749,171.579 81.316,171.389 81.0914,171.164C80.8667,170.939 80.6767,170.68 80.5296,170.399C80.2841,169.929 80.161,169.398 80.1744,168.868C80.1852,168.445 80.2827,168.024 80.4597,167.639C80.5923,167.35 80.769,167.082 80.982,166.847C81.3374,166.453 81.7922,166.154 82.2939,165.982C82.5615,165.891 82.6343,165.888 82.9116,165.839C83.3475,165.783 83.7832,165.726 84.2188,165.669C87.7539,165.192 91.2763,164.628 94.789,164.008C98.1142,163.422 101.431,162.788 104.741,162.121C108.703,161.323 112.656,160.479 116.601,159.601C120.762,158.675 124.915,157.711 129.06,156.717C136.07,155.037 143.059,153.275 150.026,151.427C152.635,150.736 155.24,150.032 157.84,149.307C158.784,149.044 159.727,148.778 160.669,148.507C161.495,148.268 162.32,148.028 163.14,147.769L163.279,147.725C163.552,147.652 163.619,147.624 163.9,147.593C164.64,147.514 165.397,147.705 166.011,148.126C166.36,148.366 166.659,148.677 166.886,149.035C167.055,149.304 167.184,149.598 167.265,149.905C167.347,150.213 167.381,150.532 167.367,150.849C167.353,151.167 167.29,151.482 167.181,151.78C166.927,152.48 166.422,153.075 165.773,153.44C165.681,153.492 165.586,153.54 165.489,153.582C165.326,153.653 165.199,153.692 165.039,153.743C164.918,153.782 164.799,153.819 164.678,153.856C164.213,154 163.747,154.138 163.281,154.275C161.608,154.766 159.929,155.235 158.248,155.699C156.046,156.306 153.841,156.901 151.633,157.486C148.709,158.262 145.78,159.021 142.848,159.767C137.465,161.136 132.07,162.459 126.662,163.729C121.374,164.97 116.074,166.162 110.758,167.281C106.317,168.217 101.865,169.103 97.3981,169.91C93.0718,170.692 88.7315,171.4 84.3722,171.971L84.0356,172.014L83.7035,172.057C83.598,172.065 83.4925,172.073 83.387,172.081Z" style="fill:rgb(174,173,185);fill-rule:nonzero;"/>
                <path d="M84.9547,160.937C84.673,160.93 84.6007,160.939 84.3223,160.889C83.8005,160.796 83.3055,160.568 82.8945,160.233C82.6483,160.033 82.433,159.795 82.2581,159.529C82.0832,159.264 81.9491,158.972 81.8616,158.667C81.7157,158.157 81.7018,157.613 81.8215,157.096C81.9172,156.683 82.0973,156.291 82.3481,155.95C82.5361,155.693 82.7631,155.466 83.0191,155.278C83.3607,155.027 83.7528,154.847 84.1656,154.751C84.2687,154.727 84.3739,154.714 84.4781,154.695C84.8034,154.654 85.1286,154.611 85.4538,154.568C88.85,154.113 92.2317,153.556 95.602,152.938C98.5286,152.401 101.447,151.819 104.358,151.205C107.925,150.453 111.482,149.654 115.031,148.82C118.73,147.952 122.42,147.047 126.103,146.113C134.121,144.08 142.107,141.916 150.063,139.648C152.994,138.812 155.921,137.962 158.842,137.093C160.072,136.727 161.301,136.358 162.528,135.983C163.418,135.711 164.307,135.436 165.194,135.152L165.5,135.071C165.779,135.026 165.848,135.004 166.131,135.002C166.875,134.998 167.609,135.264 168.177,135.745C168.42,135.951 168.63,136.193 168.8,136.461C168.97,136.73 169.098,137.024 169.18,137.331C169.262,137.638 169.296,137.958 169.282,138.275C169.249,139.019 168.946,139.738 168.437,140.281C168.147,140.59 167.794,140.839 167.406,141.009C167.213,141.093 166.994,141.158 166.795,141.221C166.67,141.261 166.544,141.301 166.418,141.341C165.931,141.494 165.443,141.645 164.955,141.795C163.221,142.328 161.482,142.849 159.742,143.364C154.517,144.911 149.276,146.403 144.022,147.851C138.577,149.351 133.118,150.801 127.643,152.189C122.59,153.47 117.524,154.699 112.44,155.852C107.981,156.862 103.508,157.816 99.0177,158.675C94.5672,159.527 90.0979,160.287 85.6038,160.871L85.2712,160.913C85.1657,160.921 85.0602,160.929 84.9547,160.937Z" style="fill:rgb(174,173,185);fill-rule:nonzero;"/>
            </g>
            <g>
                <path d="M16.9729,167.317C24.5022,192.872 33.2558,200.422 55.2657,197.444C80.8791,193.978 89.9015,192.778 107.859,190.159C125.817,187.54 141.697,184.276 154.943,181.594C147.686,182.622 124.462,178.989 114.243,138.136C79.8886,146.732 43.9983,157.604 16.9729,167.317Z" style="fill:rgb(183,159,159);"/>
            </g>
        </g>
        <g id="Layer2">
            <g>
                <path d="M154.17,182.278L153.958,180.902C154.266,180.854 154.574,180.809 154.882,180.758C155.263,180.694 155.642,180.617 156.017,180.525C156.693,180.359 157.357,180.145 158.003,179.884C158.675,179.612 159.326,179.29 159.95,178.921C160.362,178.678 160.763,178.414 161.15,178.133C161.422,177.935 161.688,177.729 161.947,177.515C163.948,175.861 165.535,173.756 166.806,171.504C167.011,171.14 167.208,170.771 167.398,170.399C167.663,169.88 167.913,169.354 168.151,168.822C168.457,168.135 168.742,167.439 169.007,166.736C169.352,165.821 169.665,164.893 169.95,163.958C170.315,162.761 170.635,161.549 170.917,160.33C171.264,158.826 171.554,157.308 171.795,155.784C172.129,153.667 172.367,151.536 172.528,149.399C172.601,148.382 172.67,147.365 172.74,146.347C173.045,141.827 173.316,137.303 173.394,132.772C173.42,131.267 173.425,129.761 173.403,128.255C173.382,126.858 173.338,125.461 173.277,124.065C173.077,119.508 172.687,114.961 172.157,110.431C171.98,108.919 171.788,107.41 171.582,105.903C171.431,104.801 171.273,103.699 171.111,102.599C170.83,100.686 170.537,98.7744 170.23,96.8653C169.004,89.2307 167.564,81.6291 165.862,74.086C163.701,64.5124 161.156,55.0309 158.486,45.5882C157.87,43.4098 157.248,41.233 156.621,39.0577C156.61,39.0182 156.596,38.9793 156.584,38.9402C156.548,38.8314 156.513,38.7225 156.478,38.6138C156.423,38.4434 156.367,38.2731 156.312,38.1029C156.146,37.5958 155.981,37.0889 155.814,36.5822C155.304,35.0263 154.79,33.4716 154.274,31.9176C152.755,27.3443 151.213,22.7783 149.628,18.2273C149.016,16.4702 148.397,14.7154 147.766,12.9651C147.253,11.5422 146.733,10.1219 146.195,8.70819C145.773,7.60027 145.344,6.49484 144.881,5.40332C144.726,5.03723 144.567,4.67261 144.399,4.31232C144.255,4.00586 144.108,3.70037 143.934,3.40981L143.917,3.38299L143.563,3.4392L143.345,2.06342L144.04,1.95319L144.116,1.94539C144.18,1.94237 144.247,1.94546 144.309,1.9586C144.356,1.9685 144.389,1.9777 144.434,1.99424C144.73,2.10374 144.928,2.37247 145.09,2.62999C145.126,2.68823 145.161,2.74736 145.195,2.80698C145.246,2.89515 145.295,2.98451 145.342,3.07451C145.395,3.17548 145.446,3.27731 145.496,3.37966C145.567,3.5238 145.636,3.66896 145.703,3.81477C145.795,4.01363 145.884,4.21368 145.972,4.41441C146.106,4.72148 146.236,5.03018 146.364,5.33982C146.51,5.69182 146.652,6.04506 146.793,6.39904C146.99,6.8958 147.184,7.39407 147.375,7.89326C147.586,8.44567 147.795,8.99925 148.001,9.55358C148.709,11.4552 149.395,13.3652 150.07,15.2785C150.86,17.5164 151.636,19.7593 152.404,22.0049C153.32,24.683 154.224,27.3652 155.12,30.05C155.891,32.3606 156.656,34.6732 157.413,36.9883C157.543,37.3867 157.674,37.7853 157.803,38.184C157.839,38.2938 157.874,38.4036 157.909,38.5134C157.925,38.5614 157.941,38.6092 157.955,38.6576C158.48,40.4764 159,42.2966 159.517,44.1176C160.343,47.0287 161.159,49.9429 161.955,52.8622C163.749,59.4335 165.45,66.0314 166.969,72.6719C167.883,76.6665 168.726,80.6772 169.501,84.7011C170.571,90.2583 171.514,95.8397 172.348,101.437C172.56,102.862 172.767,104.287 172.962,105.714C173.169,107.23 173.363,108.749 173.54,110.269C174.143,115.417 174.566,120.589 174.736,125.771C174.77,126.826 174.794,127.881 174.804,128.937C174.821,130.808 174.799,132.679 174.747,134.549C174.613,139.45 174.277,144.342 173.936,149.232C173.917,149.504 173.896,149.777 173.875,150.049C173.82,150.715 173.76,151.38 173.69,152.045C173.539,153.473 173.351,154.898 173.12,156.316C172.866,157.876 172.562,159.429 172.198,160.967C171.915,162.163 171.595,163.35 171.233,164.525C170.953,165.435 170.646,166.336 170.31,167.227C170.055,167.904 169.782,168.575 169.49,169.238C169.268,169.743 169.034,170.243 168.788,170.738C168.592,171.13 168.389,171.519 168.178,171.903C166.848,174.322 165.178,176.585 163.073,178.387C162.756,178.659 162.43,178.919 162.095,179.167C161.633,179.509 161.153,179.828 160.658,180.121C159.974,180.524 159.261,180.878 158.525,181.175C157.792,181.472 157.037,181.713 156.269,181.897C155.858,181.996 155.443,182.078 155.026,182.146C154.741,182.192 154.455,182.234 154.17,182.278Z" style="fill:white;fill-rule:nonzero;"/>
            </g>
            <g>
                <path d="M152.736,182.432C150.393,182.421 148.059,182.04 145.809,181.396C144.257,180.952 142.741,180.379 141.277,179.699C140,179.105 138.762,178.429 137.569,177.682C136.723,177.152 135.9,176.587 135.1,175.99C134.513,175.552 133.939,175.097 133.379,174.627C129.62,171.475 126.464,167.65 123.832,163.522C123.438,162.904 123.056,162.278 122.684,161.647C122.177,160.783 121.689,159.908 121.221,159.022C120.61,157.864 120.031,156.689 119.482,155.5C118.367,153.082 117.376,150.607 116.491,148.096C115.734,145.952 115.054,143.782 114.439,141.593C114.177,140.66 113.928,139.724 113.688,138.785L113.628,138.546L113.398,137.631L114.749,137.291C114.865,137.754 114.981,138.216 115.099,138.678C115.179,138.99 115.26,139.301 115.342,139.613C115.625,140.672 115.92,141.728 116.232,142.779C116.876,144.95 117.589,147.101 118.381,149.222C118.989,150.85 119.644,152.46 120.352,154.047C120.933,155.348 121.549,156.632 122.205,157.897C122.686,158.826 123.189,159.744 123.715,160.649C124.104,161.319 124.505,161.981 124.92,162.636C127.62,166.898 130.891,170.839 134.828,174.015C135.484,174.545 136.159,175.053 136.851,175.536C137.73,176.15 138.637,176.724 139.569,177.253C141.466,178.328 143.472,179.216 145.555,179.866C146.791,180.251 148.054,180.553 149.333,180.756C150.272,180.905 151.22,181 152.17,181.029C153.008,181.055 153.849,181.029 154.682,180.926L154.765,180.916L155.538,180.809L155.728,182.189C155.438,182.229 155.148,182.27 154.858,182.308C154.763,182.32 154.668,182.331 154.573,182.341C154.04,182.396 153.506,182.423 152.971,182.431C152.893,182.431 152.814,182.432 152.736,182.432Z" style="fill:white;fill-rule:nonzero;"/>
            </g>
        </g>
    </g>
</svg>
