<?xml version="1.0" standalone="no"?>
<!DOCTYPE svg PUBLIC "-//W3C//DTD SVG 1.1//EN" "http://www.w3.org/Graphics/SVG/1.1/DTD/svg11.dtd">
<svg width="60px" height="60px" version="1.1" xmlns="http://www.w3.org/2000/svg" xmlns:xlink="http://www.w3.org/1999/xlink" xml:space="preserve" style="fill-rule:evenodd;clip-rule:evenodd;stroke-linejoin:round;stroke-miterlimit:1.41421;">
    <g>
        <g id="Layer1">
            <g>
                <path d="M48.0086,54.93C52.2671,54.2865 53.4218,48.5249 53.6652,45.0473C53.8244,42.7736 53.9782,40.4928 53.9189,38.2143C53.8592,35.9181 53.6325,33.6245 53.309,31.3505C52.8639,28.2226 52.3106,25.1067 51.6153,22.0247C50.8012,18.416 49.8076,14.8487 48.7843,11.2936C48.7581,11.2025 45.1544,0.128822 44.7621,0.213542C35.2672,2.2641 18.0923,11.9581 18.0923,11.9581C18.0923,11.9581 19.1653,15.2376 19.6388,16.8962C20.1073,18.5375 20.5613,20.1853 20.9173,21.8546C21.5909,25.0136 22.238,28.1814 22.7262,31.3743C23.1431,34.1012 23.4343,36.8488 23.6304,39.6003C23.7731,41.6008 23.8301,43.6123 23.7415,45.6158C23.6537,47.6039 23.3801,49.581 23.1023,51.5515C22.6775,54.5655 21.3191,59.513 17.5707,59.8127L48.0086,54.93Z" style="fill:rgb(152,113,113);"/>
            </g>
            <g>
                <path d="M21.3385,14.6319C21.3082,14.6302 21.2777,14.6299 21.2474,14.6267C21.1263,14.6141 21.0078,14.5783 20.9001,14.5216C20.8193,14.479 20.7446,14.4249 20.6791,14.3614C20.6135,14.2978 20.5572,14.2249 20.5122,14.1454C20.4672,14.066 20.4337,13.9801 20.4129,13.8912C20.3852,13.7726 20.3803,13.6489 20.3987,13.5285C20.417,13.4081 20.4585,13.2915 20.5203,13.1866C20.5821,13.0816 20.6639,12.9888 20.7603,12.9143C20.8246,12.8646 20.844,12.8569 20.9144,12.817C21.0385,12.7544 21.1626,12.6919 21.2867,12.6295C21.6704,12.4375 22.0548,12.247 22.4401,12.0585C23.4543,11.5625 24.4743,11.0782 25.4978,10.6018C26.5592,10.1079 27.6245,9.62258 28.6928,9.1438C30.0982,8.51393 31.5086,7.89538 32.9231,7.28619C34.2161,6.72931 35.5125,6.18023 36.8123,5.63958C37.591,5.31571 38.371,4.99486 39.1526,4.67812C39.7438,4.43854 40.3359,4.2012 40.9297,3.96808C41.3898,3.78743 41.8507,3.60847 42.3146,3.4378C42.4493,3.38824 42.5844,3.33937 42.7201,3.29262C42.7569,3.27995 42.7935,3.26752 42.8305,3.25526C42.8769,3.23985 42.9164,3.22659 42.9658,3.21546C42.9955,3.20877 43.0255,3.20349 43.0557,3.19966C43.1463,3.18815 43.2384,3.18966 43.3286,3.20413C43.4488,3.22344 43.5651,3.26584 43.6696,3.32845C43.774,3.39107 43.8662,3.47365 43.9399,3.5706C43.9952,3.64328 44.04,3.72385 44.0725,3.80917C44.105,3.89448 44.1253,3.9844 44.1325,4.07542C44.1421,4.19683 44.1283,4.31983 44.0921,4.4361C44.0558,4.55238 43.9973,4.66145 43.9205,4.75593C43.8436,4.85041 43.7488,4.92992 43.6423,4.98907C43.6157,5.00385 43.5884,5.01737 43.5605,5.02955C43.5086,5.05226 43.4819,5.05973 43.434,5.07561C43.3971,5.08784 43.382,5.09309 43.3445,5.10591C43.289,5.12518 43.2336,5.14472 43.1782,5.16444C42.9118,5.26034 42.6468,5.36012 42.3823,5.46136C42.1313,5.55748 41.8808,5.65496 41.6305,5.75321C40.9404,6.02418 40.2524,6.30083 39.5656,6.58026C37.8006,7.29839 36.0431,8.03524 34.2916,8.78559C32.1095,9.72038 29.9364,10.6766 27.777,11.6629C26.0764,12.4397 24.3838,13.2345 22.7082,14.064C22.3977,14.2176 22.088,14.3728 21.7788,14.529L21.6955,14.5662C21.6667,14.5759 21.6383,14.587 21.609,14.5953C21.5308,14.6175 21.51,14.6174 21.4297,14.6283C21.3993,14.6295 21.3689,14.6307 21.3385,14.6319Z" style="fill:rgb(174,173,185);fill-rule:nonzero;"/>
                <path d="M22.4572,17.7216C22.3764,17.7171 22.3556,17.7188 22.2759,17.7027C22.1565,17.6787 22.042,17.6317 21.9401,17.565C21.8637,17.515 21.7946,17.4541 21.7354,17.3845C21.6564,17.2918 21.5954,17.1841 21.5566,17.0687C21.5177,16.9533 21.5011,16.8306 21.508,16.709C21.5131,16.6179 21.5313,16.5275 21.5619,16.4415C21.5925,16.3555 21.6354,16.2739 21.689,16.2C21.7605,16.1014 21.8508,16.0167 21.9538,15.9517C21.9795,15.9355 22.0067,15.9218 22.0332,15.9068C22.1572,15.8442 22.2813,15.7816 22.4055,15.7192C22.7891,15.5273 23.1735,15.3367 23.5588,15.1483C24.573,14.6522 25.593,14.1679 26.6165,13.6916C27.6779,13.1976 28.7432,12.7123 29.8115,12.2335C31.1486,11.6343 32.4902,11.0453 33.8356,10.4648C35.1969,9.87745 36.5621,9.29873 37.931,8.72934C38.7097,8.40547 39.4897,8.08461 40.2713,7.76787C40.8625,7.5283 41.4546,7.29097 42.0484,7.05784C42.5085,6.87719 42.9694,6.69823 43.4333,6.52756C43.568,6.47799 43.703,6.42914 43.8388,6.38238C43.8754,6.36978 43.9124,6.3572 43.9492,6.34501C43.9956,6.3296 44.0352,6.31633 44.0846,6.3052C44.1142,6.29852 44.1443,6.29324 44.1744,6.28941C44.265,6.2779 44.3572,6.27942 44.4473,6.2939C44.5375,6.30838 44.6255,6.3358 44.7079,6.37509C44.8178,6.42749 44.9175,6.50094 45,6.59045C45.0826,6.67996 45.1478,6.78517 45.1912,6.89896C45.2238,6.98427 45.244,7.07419 45.2512,7.16522C45.2608,7.28662 45.247,7.40963 45.2108,7.5259C45.1745,7.64217 45.116,7.75124 45.0392,7.84572C44.9623,7.94019 44.8674,8.0197 44.761,8.07885C44.7344,8.09362 44.7071,8.10715 44.6792,8.11932C44.6272,8.14204 44.6006,8.14949 44.5527,8.16537C44.5159,8.17756 44.5006,8.18289 44.4632,8.19566C44.4077,8.21494 44.3523,8.23448 44.2969,8.2542C44.0305,8.35011 43.7655,8.44988 43.501,8.55113C43.25,8.64724 42.9995,8.74472 42.7493,8.84296C42.0591,9.11394 41.3711,9.39058 40.6843,9.67002C38.9193,10.3882 37.1618,11.125 35.4102,11.8754C33.2281,12.8101 31.0551,13.7664 28.8957,14.7527C27.1951,15.5294 25.5025,16.3243 23.8269,17.1537C23.5164,17.3074 23.2067,17.4626 22.8975,17.6187L22.8142,17.6559C22.7374,17.6818 22.7188,17.6911 22.6388,17.7058C22.6089,17.7113 22.5786,17.714 22.5484,17.718C22.518,17.7192 22.4876,17.7204 22.4572,17.7216Z" style="fill:rgb(174,173,185);fill-rule:nonzero;"/>
                <path d="M23.2563,20.9712C23.226,20.9695 23.1955,20.9692 23.1652,20.9661C23.0441,20.9535 22.9256,20.9176 22.8179,20.8609C22.7371,20.8184 22.6624,20.7643 22.5969,20.7007C22.5313,20.6372 22.475,20.5642 22.43,20.4848C22.37,20.3788 22.3305,20.2615 22.3142,20.1408C22.2979,20.0201 22.3048,19.8965 22.3345,19.7784C22.3568,19.6899 22.3917,19.6046 22.4381,19.5259C22.4998,19.421 22.5817,19.3281 22.678,19.2536C22.7423,19.2039 22.7617,19.1963 22.8322,19.1564C22.9563,19.0937 23.0804,19.0312 23.2045,18.9688C23.5882,18.7769 23.9725,18.5863 24.3579,18.3978C25.3721,17.9018 26.392,17.4175 27.4156,16.9412C28.477,16.4472 29.5423,15.9619 30.6106,15.4831C32.0159,14.8533 33.4264,14.2347 34.8408,13.6255C36.1339,13.0686 37.4302,12.5196 38.7301,11.9789C39.5088,11.655 40.2888,11.3342 41.0704,11.0174C41.7008,10.762 42.3323,10.509 42.9657,10.2611C43.3866,10.0963 43.8082,9.93318 44.2324,9.77713C44.3671,9.72757 44.5021,9.67872 44.6378,9.63196C44.6742,9.61945 44.7118,9.60668 44.7483,9.59458C44.7947,9.57917 44.8343,9.56588 44.8837,9.55476C44.9134,9.54808 44.9434,9.5428 44.9736,9.53897C45.0944,9.52363 45.2179,9.53156 45.3358,9.56222C45.4241,9.58521 45.5091,9.62088 45.5874,9.66783C45.6919,9.73045 45.7841,9.81304 45.8578,9.91C45.9315,10.007 45.9864,10.1179 46.0187,10.2353C46.043,10.3233 46.0546,10.4148 46.0531,10.5061C46.0516,10.5973 46.037,10.6884 46.0098,10.7755C45.9736,10.8918 45.9151,11.0009 45.8382,11.0953C45.7614,11.1898 45.6665,11.2693 45.56,11.3284C45.5334,11.3432 45.5061,11.3567 45.4782,11.3689C45.4262,11.3917 45.3997,11.3991 45.3517,11.4149C45.3153,11.427 45.2994,11.4326 45.2623,11.4452C45.2068,11.4645 45.1514,11.484 45.096,11.5038C44.8296,11.5997 44.5646,11.6994 44.3001,11.8007C44.0491,11.8968 43.7985,11.9943 43.5483,12.0925C42.8581,12.3635 42.1702,12.6402 41.4834,12.9196C39.7184,13.6377 37.9609,14.3746 36.2093,15.1249C34.0272,16.0597 31.8542,17.0159 29.6948,18.0022C27.6791,18.9229 25.6749,19.8694 23.6966,20.8683L23.6133,20.9055C23.5365,20.9313 23.5179,20.9407 23.438,20.9554C23.408,20.9609 23.3777,20.9635 23.3475,20.9676C23.3171,20.9688 23.2867,20.97 23.2563,20.9712Z" style="fill:rgb(174,173,185);fill-rule:nonzero;"/>
                <path d="M25.4352,29.0682C25.3545,29.0625 25.3336,29.0639 25.2542,29.0467C25.1054,29.0144 24.9649,28.9463 24.8474,28.8494C24.7535,28.7719 24.6746,28.6765 24.6162,28.5697C24.5577,28.4628 24.52,28.3449 24.5055,28.224C24.4946,28.1334 24.4967,28.0412 24.5118,27.9512C24.5269,27.8611 24.5549,27.7733 24.5947,27.6911C24.6346,27.609 24.6862,27.5326 24.7476,27.465C24.8295,27.3749 24.9285,27.3006 25.038,27.2474C25.0654,27.234 25.0939,27.2234 25.1219,27.2114C25.3488,27.1266 25.5757,27.0415 25.8025,26.9562C27.6616,26.2549 29.5133,25.5341 31.3606,24.8022C33.3236,24.0245 35.2817,23.2342 37.2358,22.4344C39.0756,21.6813 40.9121,20.9198 42.7442,20.1482C44.3945,19.4532 46.0416,18.7506 47.6807,18.0295L47.7658,17.9967C47.7951,17.9886 47.8241,17.979 47.8537,17.9722C47.9725,17.9452 48.0962,17.941 48.2165,17.96C48.3368,17.979 48.4532,18.0211 48.5578,18.0835C48.6362,18.1302 48.7079,18.1882 48.7699,18.2552C48.832,18.3221 48.8844,18.3979 48.9251,18.4797C48.9794,18.5887 49.0127,18.7079 49.0225,18.8293C49.0349,18.9811 49.0106,19.1353 48.952,19.2759C48.8816,19.4448 48.7626,19.5918 48.6121,19.6959C48.5453,19.7421 48.5255,19.7487 48.453,19.7848C48.2923,19.8555 48.1316,19.9261 47.9709,19.9966C46.2524,20.7472 44.5266,21.4807 42.7974,22.2061C40.9298,22.9896 39.0581,23.7631 37.1827,24.5277C35.3515,25.2743 33.5167,26.0125 31.6775,26.7393C29.7785,27.4898 27.8747,28.2283 25.9625,28.9446L25.7931,29.0079C25.7642,29.0171 25.7356,29.0278 25.7062,29.0357C25.6277,29.0568 25.6069,29.0564 25.5265,29.066C25.4961,29.0668 25.4657,29.0675 25.4352,29.0682Z" style="fill:rgb(174,173,185);fill-rule:nonzero;"/>
                <path d="M25.968,31.9982C25.9376,31.996 25.9072,31.9953 25.877,31.9917C25.756,31.9774 25.6381,31.9397 25.5312,31.8814C25.451,31.8377 25.3772,31.7825 25.3126,31.718C25.248,31.6535 25.1927,31.5797 25.1489,31.4996C25.0905,31.3928 25.0527,31.2749 25.0382,31.154C25.0236,31.0331 25.0324,30.9096 25.0639,30.7919C25.0874,30.7037 25.1237,30.619 25.1711,30.541C25.2503,30.4109 25.3606,30.3004 25.4906,30.2211C25.56,30.1787 25.5801,30.1733 25.6546,30.1413C25.8815,30.0565 26.1084,29.9714 26.3352,29.8861C28.1943,29.1849 30.046,28.4641 31.8933,27.7322C33.8563,26.9544 35.8144,26.1641 37.7685,25.3643C39.6084,24.6112 41.4448,23.8498 43.277,23.0781C44.9272,22.3831 46.5743,21.6806 48.2134,20.9594L48.2985,20.9267C48.3278,20.9185 48.3568,20.9089 48.3864,20.9022C48.5052,20.8751 48.6289,20.8709 48.7492,20.8899C48.8394,20.9042 48.9274,20.9314 49.01,20.9705C49.0925,21.0095 49.1693,21.0605 49.2375,21.1212C49.3512,21.2225 49.44,21.3509 49.4946,21.4931C49.5383,21.6068 49.56,21.7286 49.5583,21.8504C49.5566,21.9722 49.5315,22.0934 49.4847,22.2058C49.4143,22.3747 49.2953,22.5218 49.1448,22.6258C49.078,22.672 49.0582,22.6787 48.9857,22.7148C48.8251,22.7855 48.6643,22.856 48.5036,22.9265C46.7852,23.6771 45.0593,24.4107 43.3301,25.1361C41.4625,25.9195 39.5908,26.693 37.7155,27.4576C35.8842,28.2042 34.0494,28.9424 32.2102,29.6693C30.3112,30.4197 28.4074,31.1583 26.4952,31.8745L26.3259,31.9378C26.2969,31.9471 26.2683,31.9577 26.239,31.9656C26.1605,31.9867 26.1396,31.9863 26.0592,31.996C26.0288,31.9967 25.9984,31.9974 25.968,31.9982Z" style="fill:rgb(174,173,185);fill-rule:nonzero;"/>
                <path d="M26.5007,34.9281C26.4703,34.926 26.4399,34.9253 26.4097,34.9217C26.2887,34.9073 26.1708,34.8697 26.0639,34.8114C25.9837,34.7677 25.9099,34.7125 25.8453,34.6479C25.7807,34.5834 25.7254,34.5097 25.6816,34.4295C25.6232,34.3227 25.5854,34.2048 25.5709,34.0839C25.5564,33.963 25.5651,33.8395 25.5966,33.7219C25.6202,33.6337 25.6564,33.5489 25.7039,33.4709C25.7831,33.3408 25.8934,33.2304 26.0234,33.151C26.0927,33.1087 26.1129,33.1032 26.1873,33.0713C26.4143,32.9865 26.6411,32.9014 26.8679,32.816C28.727,32.1148 30.5788,31.394 32.426,30.6621C34.3891,29.8844 36.3471,29.0941 38.3012,28.2943C40.1411,27.5412 41.9775,26.7797 43.8097,26.0081C45.4599,25.3131 47.1071,24.6105 48.7461,23.8893L48.8312,23.8566C48.9093,23.8349 48.9284,23.8265 49.009,23.8161C49.1904,23.7926 49.3773,23.8221 49.5427,23.9004C49.6803,23.9656 49.8017,24.0638 49.8941,24.1848C49.9681,24.2816 50.0233,24.3924 50.056,24.5097C50.0805,24.5976 50.0923,24.689 50.091,24.7803C50.0898,24.8716 50.0754,24.9627 50.0485,25.0499C50.0125,25.1663 49.9543,25.2755 49.8777,25.3702C49.8011,25.4649 49.7064,25.5446 49.6001,25.604C49.5736,25.6189 49.5457,25.6311 49.5184,25.6447C49.3578,25.7154 49.1971,25.786 49.0363,25.8564C47.3179,26.6071 45.592,27.3406 43.8628,28.066C41.9953,28.8495 40.1235,29.6229 38.2482,30.3875C36.4169,31.1342 34.5821,31.8724 32.7429,32.5992C30.8439,33.3497 28.9401,34.0882 27.0279,34.8044L26.8586,34.8677C26.7814,34.8924 26.7626,34.9015 26.6825,34.915C26.6525,34.9201 26.6221,34.9223 26.5919,34.9259C26.5615,34.9266 26.5311,34.9274 26.5007,34.9281Z" style="fill:rgb(174,173,185);fill-rule:nonzero;"/>
                <path d="M27.1681,38.0714C27.1073,38.0696 27.0919,38.0708 27.0316,38.0625C26.9185,38.0469 26.8084,38.011 26.7078,37.9569C26.506,37.8483 26.3473,37.6674 26.2658,37.4532C26.2334,37.3678 26.2133,37.2779 26.2062,37.1868C26.1991,37.0958 26.2051,37.0038 26.224,36.9145C26.2476,36.8028 26.2912,36.6955 26.3523,36.5991C26.438,36.464 26.5575,36.3513 26.6975,36.2738C26.7507,36.2443 26.7655,36.2398 26.8216,36.2162C26.9477,36.1682 27.0738,36.1202 27.1999,36.072C28.3788,35.6199 29.5525,35.1544 30.723,34.6809C31.6697,34.298 32.6144,33.91 33.5573,33.518C34.5809,33.0924 35.6025,32.6621 36.6217,32.2261C37.495,31.8525 38.3665,31.4749 39.2342,31.0885L39.3652,31.03C39.4215,31.0072 39.4352,30.9999 39.4937,30.9832C39.6035,30.952 39.7188,30.9405 39.8326,30.9496C39.992,30.9623 40.1475,31.0154 40.2814,31.103C40.396,31.178 40.4941,31.2777 40.5673,31.3936C40.616,31.4708 40.6536,31.5549 40.6786,31.6427C40.7037,31.7305 40.716,31.8219 40.7153,31.9132C40.7144,32.0273 40.6929,32.1411 40.6521,32.2478C40.5868,32.4187 40.4722,32.5692 40.3249,32.6777C40.2881,32.7048 40.2494,32.7292 40.2092,32.7507C40.189,32.7615 40.1682,32.7708 40.1477,32.7809C40.0109,32.842 39.874,32.903 39.737,32.9637C38.4239,33.5445 37.1037,34.1091 35.7805,34.6665C34.2661,35.3045 32.7473,35.9323 31.2233,36.5472C30.3774,36.8885 29.5299,37.2258 28.6798,37.5565C28.4153,37.6594 28.1505,37.7617 27.8854,37.8631C27.8211,37.8877 27.7568,37.9123 27.6925,37.9368C27.6293,37.9609 27.5663,37.9854 27.5028,38.0089C27.4571,38.0258 27.4194,38.0376 27.3718,38.0482C27.3124,38.0615 27.2969,38.0617 27.2365,38.0685C27.2137,38.0695 27.1909,38.0704 27.1681,38.0714Z" style="fill:rgb(174,173,185);fill-rule:nonzero;"/>
                <path d="M25.4846,55.3558C25.4533,55.3552 25.4218,55.356 25.3905,55.3539C25.2652,55.3451 25.142,55.3115 25.0296,55.2554C24.9453,55.2134 24.8673,55.1589 24.7989,55.0942C24.6847,54.9863 24.598,54.8505 24.5481,54.7015C24.5083,54.5824 24.4922,54.4556 24.501,54.3303C24.5075,54.2364 24.528,54.1435 24.5616,54.0555C24.5951,53.9676 24.6417,53.8846 24.6994,53.8102C24.8149,53.661 24.9743,53.5478 25.1533,53.4879C25.2328,53.4614 25.2543,53.4607 25.3366,53.4461C25.4703,53.4291 25.6041,53.4118 25.7378,53.3942C26.8942,53.2408 28.0473,53.0637 29.198,52.8723C30.3734,52.6768 31.5463,52.4666 32.7173,52.2465C34.0005,52.0054 35.2815,51.7523 36.5606,51.4903C37.8795,51.22 39.1965,50.9402 40.5116,50.6519C41.5044,50.4343 42.4962,50.2118 43.4868,49.9843C44.3998,49.7746 45.3119,49.5606 46.2226,49.3407C46.9221,49.1717 47.621,48.9997 48.3179,48.8202C48.5822,48.7521 48.8463,48.6829 49.1097,48.611C49.3117,48.5559 49.5137,48.5 49.7132,48.4364L49.8042,48.4122C49.8866,48.3988 49.9072,48.3924 49.991,48.3912C50.2115,48.3882 50.4299,48.4629 50.6023,48.6004C50.7004,48.6787 50.7829,48.7764 50.8436,48.8863C50.9043,48.9962 50.9431,49.118 50.9572,49.2428C50.9677,49.3364 50.9643,49.4314 50.9473,49.524C50.9302,49.6166 50.8994,49.7066 50.8561,49.7903C50.8129,49.8739 50.7573,49.9511 50.6917,50.0186C50.6041,50.1086 50.4989,50.1811 50.3835,50.2307C50.3361,50.2512 50.2949,50.264 50.2471,50.279C50.1882,50.2975 50.129,50.3154 50.0698,50.3328C49.889,50.386 49.7073,50.4362 49.5254,50.4854C49.0296,50.6194 48.5318,50.7462 48.0336,50.8708C47.2955,51.0554 46.5561,51.2343 45.8159,51.41C44.9795,51.6085 44.142,51.8027 43.3038,51.9934C41.7432,52.3484 40.1799,52.6913 38.614,53.0219C37.0115,53.3602 35.4063,53.6856 33.7977,53.9936C32.4491,54.2518 31.0982,54.4979 29.7441,54.7254C28.427,54.9467 27.1068,55.1504 25.7823,55.3225L25.6798,55.3357L25.5784,55.3485C25.5472,55.351 25.5159,55.3534 25.4846,55.3558Z" style="fill:rgb(174,173,185);fill-rule:nonzero;"/>
                <path d="M26.1743,52.053C26.142,52.0522 26.1095,52.053 26.0772,52.0506C25.9479,52.0407 25.821,52.0044 25.7061,51.9444C25.6199,51.8994 25.5407,51.8412 25.472,51.7725C25.4033,51.7038 25.3451,51.6246 25.3001,51.5384C25.225,51.3947 25.1873,51.2323 25.1915,51.0702C25.1947,50.9405 25.2246,50.8119 25.2787,50.6941C25.3193,50.6058 25.3734,50.5238 25.4385,50.4516C25.5473,50.3313 25.6864,50.2396 25.8399,50.1871C25.9218,50.1591 25.9441,50.1585 26.0289,50.1433C26.1623,50.1263 26.2956,50.1089 26.4288,50.0912C27.5104,49.9456 28.5881,49.7727 29.6628,49.5832C30.6801,49.4039 31.6949,49.2098 32.7076,49.0059C33.9198,48.7618 35.1291,48.5034 36.3361,48.2348C37.6092,47.9514 38.8797,47.6566 40.148,47.3526C42.2925,46.8385 44.431,46.2994 46.5625,45.7341C47.3606,45.5225 48.1577,45.3072 48.9531,45.0855C49.2419,45.005 49.5305,44.9236 49.8186,44.8405C50.0713,44.7676 50.3239,44.694 50.5747,44.615L50.6173,44.6013C50.7006,44.5792 50.7211,44.5704 50.8071,44.5611C51.0336,44.5367 51.2652,44.5952 51.4529,44.7242C51.5598,44.7976 51.6513,44.8927 51.7206,45.0023C51.7725,45.0845 51.8118,45.1746 51.8367,45.2685C51.8617,45.3625 51.8722,45.4601 51.8678,45.5572C51.8635,45.6544 51.8443,45.7507 51.8111,45.8421C51.7333,46.0561 51.5788,46.2383 51.3803,46.35C51.3521,46.3659 51.323,46.3804 51.2934,46.3933C51.2436,46.4151 51.2047,46.4271 51.1556,46.4427C51.1186,46.4544 51.0822,46.4658 51.0452,46.4772C50.9031,46.5211 50.7605,46.5635 50.6178,46.6054C50.1059,46.7555 49.5921,46.8992 49.0779,47.041C48.4043,47.2269 47.7296,47.4087 47.0541,47.5878C46.1594,47.8251 45.2634,48.0575 44.3664,48.2857C42.7194,48.7045 41.0688,49.1092 39.4143,49.4977C37.7964,49.8775 36.1748,50.242 34.5486,50.5845C33.1897,50.8707 31.8276,51.1419 30.461,51.3888C29.1374,51.628 27.8095,51.8446 26.4757,52.0194L26.3728,52.0327L26.2712,52.0457C26.2389,52.0481 26.2066,52.0506 26.1743,52.053Z" style="fill:rgb(174,173,185);fill-rule:nonzero;"/>
                <path d="M26.654,48.6437C26.5678,48.6415 26.5457,48.6442 26.4605,48.629C26.3008,48.6004 26.1494,48.5308 26.0237,48.4284C25.9483,48.3669 25.8824,48.2941 25.8289,48.2129C25.7754,48.1318 25.7344,48.0425 25.7076,47.949C25.663,47.7931 25.6587,47.6265 25.6954,47.4685C25.7247,47.3422 25.7798,47.2222 25.8565,47.1177C25.914,47.0393 25.9834,46.9698 26.0618,46.9123C26.1663,46.8355 26.2862,46.7804 26.4125,46.7511C26.4441,46.7437 26.4763,46.7396 26.5082,46.7339C26.6077,46.7212 26.7072,46.7083 26.8067,46.6951C27.8457,46.5557 28.8803,46.3854 29.9115,46.1963C30.8069,46.0321 31.6997,45.8539 32.5904,45.6661C33.6817,45.436 34.77,45.1914 35.8557,44.9365C36.9874,44.6709 38.1164,44.3939 39.2431,44.1082C41.6964,43.4862 44.1397,42.8241 46.5737,42.1302C47.4704,41.8745 48.366,41.6145 49.2598,41.3486C49.636,41.2366 50.012,41.1237 50.3874,41.009C50.6597,40.9258 50.9318,40.8417 51.203,40.7547L51.2968,40.7298C51.382,40.7162 51.4032,40.7095 51.4897,40.7089C51.7175,40.7075 51.9421,40.789 52.1158,40.9362C52.19,40.9991 52.2544,41.0732 52.3064,41.1553C52.3583,41.2375 52.3976,41.3275 52.4226,41.4215C52.4476,41.5154 52.4581,41.6131 52.4538,41.7102C52.4438,41.9377 52.351,42.1579 52.1951,42.3239C52.1064,42.4185 51.9985,42.4946 51.8797,42.5465C51.8209,42.5722 51.7539,42.5922 51.693,42.6116C51.6546,42.6238 51.6161,42.636 51.5777,42.6481C51.4286,42.695 51.2794,42.7413 51.13,42.7872C50.5994,42.9503 50.0675,43.1097 49.5352,43.2673C47.9365,43.7405 46.3329,44.197 44.7256,44.6398C43.0596,45.0988 41.3894,45.5425 39.7144,45.9672C38.1685,46.3591 36.6184,46.7351 35.063,47.0877C33.6988,47.397 32.3304,47.6887 30.9565,47.9516C29.5949,48.2121 28.2275,48.4448 26.8526,48.6233L26.7508,48.6363C26.7185,48.6387 26.6862,48.6412 26.654,48.6437Z" style="fill:rgb(174,173,185);fill-rule:nonzero;"/>
            </g>
            <g>
                <path d="M5.85503,50.5957C8.15861,58.4141 10.8368,60.7239 17.5707,59.8127C25.407,58.7524 28.1674,58.3852 33.6615,57.584C39.1556,56.7828 44.0142,55.784 48.0668,54.9636C45.8466,55.2781 38.7412,54.1665 35.6147,41.6678C25.104,44.2977 14.1234,47.6238 5.85503,50.5957Z" style="fill:rgb(183,159,159);"/>
            </g>
        </g>
        <g id="Layer2">
            <g>
                <path d="M47.8303,55.1729L47.7656,54.7517C47.8598,54.7372 47.954,54.7234 48.0481,54.7079C48.1647,54.6882 48.2806,54.6648 48.3954,54.6365C48.6022,54.5857 48.8055,54.5202 49.0029,54.4404C49.2085,54.3573 49.4077,54.2586 49.5986,54.1458C49.7247,54.0713 49.8473,53.9907 49.9659,53.9046C50.0491,53.8442 50.1303,53.7811 50.2095,53.7157C50.8217,53.2096 51.3075,52.5655 51.6962,51.8765C51.759,51.7651 51.8194,51.6524 51.8775,51.5385C51.9585,51.3797 52.0351,51.2188 52.1077,51.056C52.2014,50.8459 52.2884,50.6329 52.3697,50.4176C52.4753,50.1377 52.571,49.854 52.6582,49.5678C52.7699,49.2015 52.8677,48.831 52.9539,48.4578C53.0602,47.9976 53.1488,47.5334 53.2225,47.067C53.325,46.4193 53.3977,45.7674 53.4468,45.1136C53.4691,44.8024 53.4904,44.4912 53.5116,44.1799C53.6049,42.797 53.688,41.4128 53.7119,40.0266C53.7198,39.566 53.7213,39.1053 53.7145,38.6447C53.7082,38.2172 53.6946,37.7898 53.6759,37.3627C53.615,35.9685 53.4955,34.5772 53.3334,33.1912C53.2793,32.7289 53.2204,32.2671 53.1574,31.8059C53.1113,31.4687 53.0628,31.1318 53.0134,30.7951C52.9275,30.2098 52.8378,29.625 52.744,29.0409C52.3687,26.7052 51.9283,24.3795 51.4075,22.0716C50.7464,19.1426 49.9676,16.2418 49.1507,13.3528C48.9622,12.6863 48.772,12.0203 48.5801,11.3548C48.5767,11.3427 48.5726,11.3308 48.5687,11.3188C48.558,11.2855 48.5472,11.2522 48.5364,11.219C48.5195,11.1669 48.5025,11.1148 48.4856,11.0627C48.435,10.9075 48.3843,10.7524 48.3334,10.5974C48.1772,10.1214 48.0199,9.64574 47.862,9.1703C47.3973,7.77107 46.9255,6.37413 46.4406,4.98174C46.2534,4.44417 46.0642,3.90731 45.8711,3.3718C45.7142,2.93645 45.5549,2.50192 45.3904,2.0694C45.2614,1.73043 45.1299,1.39222 44.9883,1.05827C44.9408,0.946271 44.8922,0.834715 44.8407,0.724486C44.797,0.630723 44.7517,0.537261 44.6986,0.448363L44.6935,0.440157L44.585,0.457356L44.5183,0.0364361L44.7311,0.00271257L44.7543,0.000325051C44.7738,-0.000596724 44.7942,0.000348567 44.8133,0.0043667C44.8277,0.00739512 44.8378,0.0102113 44.8515,0.0152719C44.9421,0.0487733 45.0027,0.130992 45.0521,0.209779C45.0633,0.227598 45.0741,0.245689 45.0845,0.26393C45.1,0.290905 45.1149,0.318243 45.1293,0.345779C45.1455,0.37667 45.1613,0.407826 45.1766,0.43914C45.1983,0.483238 45.2193,0.527651 45.2399,0.572261C45.268,0.633102 45.2953,0.694306 45.3221,0.75572C45.3631,0.849666 45.403,0.944115 45.4422,1.03885C45.4867,1.14654 45.5303,1.25461 45.5733,1.36291C45.6337,1.5149 45.6929,1.66734 45.7514,1.82007C45.8161,1.98908 45.8798,2.15844 45.943,2.32804C46.1596,2.90982 46.3692,3.49421 46.576,4.07957C46.8177,4.76425 47.0551,5.45047 47.2901,6.13751C47.5703,6.95687 47.8469,7.77747 48.1209,8.59891C48.3568,9.30583 48.5909,10.0133 48.8225,10.7217C48.8624,10.8436 48.9022,10.9655 48.9418,11.0875C48.9527,11.1211 48.9635,11.1547 48.9744,11.1883C48.9791,11.203 48.9841,11.2176 48.9884,11.2324C49.149,11.7888 49.3081,12.3457 49.4662,12.9029C49.719,13.7935 49.9684,14.6851 50.2122,15.5783C50.7611,17.5887 51.2813,19.6074 51.7462,21.639C52.0259,22.8611 52.2837,24.0882 52.5207,25.3193C52.8481,27.0195 53.1365,28.7272 53.3917,30.4397C53.4566,30.8755 53.52,31.3116 53.5796,31.7482C53.643,32.2121 53.7022,32.6766 53.7566,33.1417C53.9409,34.7169 54.0705,36.2991 54.1224,37.8845C54.1329,38.2073 54.1402,38.5302 54.1432,38.8532C54.1485,39.4256 54.1417,39.9981 54.1259,40.5703C54.0847,42.0696 53.9821,43.5663 53.8778,45.0623C53.8718,45.1458 53.8655,45.2292 53.859,45.3125C53.8423,45.5162 53.8238,45.7197 53.8024,45.923C53.7563,46.3601 53.6986,46.7959 53.6281,47.2297C53.5504,47.7072 53.4574,48.1822 53.3459,48.6529C53.2593,49.0187 53.1616,49.382 53.0508,49.7413C52.965,50.0196 52.8712,50.2955 52.7684,50.5681C52.6902,50.7753 52.6068,50.9805 52.5175,51.1831C52.4494,51.3377 52.3778,51.4909 52.3025,51.6421C52.2428,51.7622 52.1807,51.881 52.1161,51.9985C51.709,52.7386 51.1983,53.4312 50.5543,53.9825C50.4573,54.0655 50.3575,54.1452 50.2549,54.2211C50.1135,54.3258 49.9668,54.4233 49.8153,54.5128C49.6061,54.6363 49.3879,54.7445 49.1626,54.8355C48.9384,54.9261 48.7075,54.9998 48.4724,55.0564C48.3467,55.0866 48.2198,55.1116 48.0923,55.1326C48.005,55.1464 47.9176,55.1595 47.8303,55.1729Z" style="fill:white;fill-rule:nonzero;"/>
            </g>
            <g>
                <path d="M47.3915,55.2199C46.6747,55.2167 45.9608,55.0999 45.2724,54.9029C44.7974,54.767 44.3337,54.592 43.8858,54.3837C43.4951,54.2021 43.1163,53.9952 42.7512,53.7666C42.4924,53.6045 42.2405,53.4315 41.9958,53.2489C41.8164,53.115 41.6408,52.9758 41.4692,52.8319C40.3191,51.8676 39.3536,50.6975 38.5485,49.4344C38.428,49.2453 38.311,49.054 38.1973,48.8607C38.042,48.5965 37.8929,48.3287 37.7497,48.0577C37.5625,47.7035 37.3854,47.344 37.2176,46.9802C36.8764,46.2404 36.5733,45.4832 36.3023,44.715C36.0709,44.0591 35.8628,43.395 35.6747,42.7253C35.5946,42.4399 35.5184,42.1535 35.445,41.8663L35.4264,41.793L35.3561,41.513L35.7694,41.4092C35.8049,41.5506 35.8403,41.6921 35.8764,41.8334C35.901,41.9288 35.9259,42.0241 35.9511,42.1194C36.0374,42.4436 36.1277,42.7667 36.2231,43.0883C36.4203,43.7524 36.6383,44.4105 36.8807,45.0595C37.0668,45.5575 37.2672,46.0501 37.4839,46.5356C37.6615,46.9335 37.85,47.3266 38.0506,47.7135C38.1979,47.9977 38.3517,48.2785 38.5125,48.5553C38.6316,48.7603 38.7544,48.9631 38.8813,49.1634C39.7073,50.4675 40.7081,51.673 41.9125,52.6448C42.1134,52.8069 42.3198,52.9623 42.5315,53.1101C42.8004,53.298 43.0779,53.4737 43.3632,53.6355C43.9437,53.9645 44.5573,54.2361 45.1945,54.4348C45.5727,54.5528 45.9591,54.6452 46.3505,54.7072C46.6377,54.7526 46.9276,54.7819 47.2183,54.7909C47.4749,54.7988 47.7321,54.7908 47.987,54.7593L48.0122,54.756L48.2488,54.7234L48.307,55.1456C48.2183,55.1578 48.1296,55.1705 48.0407,55.1821C48.0117,55.1857 47.9827,55.1891 47.9536,55.1922C47.7907,55.2089 47.6273,55.2173 47.4635,55.2195C47.4395,55.2197 47.4155,55.2198 47.3915,55.2199Z" style="fill:white;fill-rule:nonzero;"/>
            </g>
        </g>
    </g>
</svg>
